<?xml version="1.0" encoding="utf-8"?>
<!-- Generator: Adobe Illustrator 24.1.0, SVG Export Plug-In . SVG Version: 6.00 Build 0)  -->
<svg version="1.1" id="Capa_1" xmlns="http://www.w3.org/2000/svg" xmlns:xlink="http://www.w3.org/1999/xlink" x="0px" y="0px"
	 viewBox="0 0 31.9 32" style="enable-background:new 0 0 31.9 32;" xml:space="preserve">
<style type="text/css">
	.st0{fill:#F4F4F4;}
	.st1{fill:#205AED;}
	.st2{fill:#406EF9;}
	.st3{opacity:0.2;fill:#C4952C;enable-background:new    ;}
</style>
<g>
	<path class="st0" d="M23.2,9.7l-0.3-5.5c-0.2-2.1-1.9-3.7-4-3.7l-2.2,0h-0.1c-2.1,0-3.9,1.6-4.1,3.7l-0.3,5.5
		c0,0.3,0.2,0.6,0.5,0.6h0.1c0.3,0,0.6-0.2,0.6-0.5l0.3-5.5c0.1-1.5,1.4-2.6,2.9-2.6h0l2.2,0c1.5,0,2.7,1.1,2.8,2.6L22,9.8
		c0,0.3,0.3,0.5,0.6,0.5h0.1C23,10.3,23.2,10,23.2,9.7z"/>
	<path class="st1" d="M8.6,8.2L5.8,27.4c-0.3,1.9,1.1,3.7,3,3.9c0.2,0,0.3,0,0.5,0h16.1c2.2,0,4.4-1.1,4-3.3L25.7,8.2
		c-0.1-0.6-0.6-1-1.3-1H9.9C9.3,7.2,8.7,7.6,8.6,8.2z"/>
	<path class="st2" d="M5.4,8.2L2.5,27.5c-0.3,1.9,1.1,3.7,3,4c0.2,0,0.3,0,0.5,0l19.7-0.1c0,0-1.2-0.3-1.7-2.8
		c-0.9-4.3-1.6-20.4-1.6-20.4c-0.1-0.6-0.6-1-1.3-1H6.6C6,7.1,5.5,7.6,5.4,8.2z"/>
	<path class="st0" d="M19.9,9.8l-0.3-5.5c-0.2-2.1-1.9-3.7-4-3.7l-2.2,0h-0.1c-2.1,0-3.9,1.6-4.1,3.7L9,9.8c0,0.3,0.2,0.6,0.5,0.6
		c0,0,0,0,0,0h0.1c0.3,0,0.6-0.2,0.6-0.5l0.3-5.5c0.1-1.5,1.4-2.6,2.9-2.6h0l2.2,0c1.5,0,2.7,1.1,2.8,2.6l0.3,5.5
		c0,0.3,0.3,0.5,0.6,0.5h0.1C19.7,10.4,20,10.1,19.9,9.8C19.9,9.8,19.9,9.8,19.9,9.8z"/>
	<path class="st0" d="M18.9,20.7L11.4,21c0.4,1.3,1.5,2.1,3.2,2c0.7,0,1.3-0.2,1.9-0.5c0.5-0.3,1.2-0.3,1.7,0.2l0,0
		c0.5,0.5,0.5,1.2,0,1.7c-0.1,0.1-0.1,0.1-0.2,0.2c-1,0.6-2.2,1-3.4,1c-3.8,0.2-6.4-2-6.5-5.2c-0.1-3.2,2.4-5.6,5.8-5.8
		c3.3-0.2,5.8,1.8,5.9,5.3l0,0C19.8,20.3,19.4,20.7,18.9,20.7z M11.3,19.2l5.5-0.3c-0.2-1.3-1.4-2.2-2.8-2.1
		C12.6,16.9,11.4,17.9,11.3,19.2z"/>
	<path class="st3" d="M24.1,8.9c0,0,1.8,16.1,1.7,17.7c-0.1,1.7-0.3,4.2-0.3,4.2s0.9-3.1,1.4-3c0.4,0.1,2.3,0.7,2.3,0.7
		s-2.4-1.7-2.8-3.1C26.3,24.7,24.1,8.9,24.1,8.9z"/>
</g>
</svg>
