<svg xmlns="http://www.w3.org/2000/svg" viewBox="0 0 343.77 89.6"><g style="isolation:isolate"><g id="OBJECTS"><path d="M123.39,57.48a20.19,20.19,0,0,1-1.11,7,14.26,14.26,0,0,1-3.07,5.07,12.54,12.54,0,0,1-4.66,3.08,17.07,17.07,0,0,1-11.68,0,12.54,12.54,0,0,1-4.66-3.08,14.26,14.26,0,0,1-3.07-5.07,20.19,20.19,0,0,1-1.11-7,19.49,19.49,0,0,1,1.14-6.94,14.51,14.51,0,0,1,3.11-5,12.84,12.84,0,0,1,4.66-3.07,16.53,16.53,0,0,1,11.54,0,12.84,12.84,0,0,1,4.66,3.07,14.68,14.68,0,0,1,3.12,5A19.73,19.73,0,0,1,123.39,57.48Zm-6.42,0c0-3.5-.75-6.16-2.25-8a7.91,7.91,0,0,0-12,0c-1.5,1.81-2.25,4.49-2.25,8s.74,6.21,2.22,8a8,8,0,0,0,12,0Q117,62.78,117,57.48Z" style="fill:#f4f4f4"/><path d="M143.21,54.25a4.8,4.8,0,0,0-3.21-1,8.84,8.84,0,0,0-2.58.36,7.74,7.74,0,0,0-2,.9V72.77l-1.16.26a8.21,8.21,0,0,1-1.65.15,4,4,0,0,1-2.51-.66,2.83,2.83,0,0,1-.82-2.32V54a3.55,3.55,0,0,1,.49-2,5.46,5.46,0,0,1,1.49-1.46,12.17,12.17,0,0,1,3.72-1.69,17.91,17.91,0,0,1,5.12-.69q5,0,7.7,2.3t2.73,6.74V72.77c-.26.07-.64.16-1.14.26a8.16,8.16,0,0,1-1.61.15,4,4,0,0,1-2.54-.66,2.86,2.86,0,0,1-.79-2.32V57.43A4,4,0,0,0,143.21,54.25Z" style="fill:#f4f4f4"/><path d="M162.58,73a8.26,8.26,0,0,1-1.62.15,4,4,0,0,1-2.54-.66,2.86,2.86,0,0,1-.79-2.32V40a6.33,6.33,0,0,1,1.13-.28,10.23,10.23,0,0,1,1.62-.13,3.93,3.93,0,0,1,2.53.66,2.88,2.88,0,0,1,.8,2.32V72.77C163.45,72.84,163.07,72.93,162.58,73Z" style="fill:#f4f4f4"/><path d="M170.61,41.79a3.48,3.48,0,0,1,1-2.5,3.37,3.37,0,0,1,2.54-1,3.27,3.27,0,0,1,2.51,1,3.55,3.55,0,0,1,1,2.5,3.61,3.61,0,0,1-1,2.54,3.27,3.27,0,0,1-2.51,1,3.37,3.37,0,0,1-2.54-1A3.54,3.54,0,0,1,170.61,41.79Zm.49,7.31c.25-.06.63-.15,1.13-.25a8.26,8.26,0,0,1,1.62-.15,3.93,3.93,0,0,1,2.53.66,2.83,2.83,0,0,1,.8,2.32V72.77c-.26.07-.63.16-1.13.26a8.26,8.26,0,0,1-1.62.15,4,4,0,0,1-2.54-.66,2.86,2.86,0,0,1-.79-2.32Z" style="fill:#f4f4f4"/><path d="M198.16,54.25a4.8,4.8,0,0,0-3.21-1,8.84,8.84,0,0,0-2.58.36,7.74,7.74,0,0,0-2.05.9V72.77l-1.16.26a8.21,8.21,0,0,1-1.65.15,4,4,0,0,1-2.51-.66,2.83,2.83,0,0,1-.82-2.32V54a3.55,3.55,0,0,1,.49-2,5.46,5.46,0,0,1,1.49-1.46,12.17,12.17,0,0,1,3.72-1.69,17.91,17.91,0,0,1,5.12-.69q5,0,7.7,2.3t2.73,6.74V72.77c-.26.07-.64.16-1.13.26a8.26,8.26,0,0,1-1.62.15,4,4,0,0,1-2.54-.66,2.86,2.86,0,0,1-.8-2.32V57.43A4,4,0,0,0,198.16,54.25Z" style="fill:#f4f4f4"/><path d="M217.21,63.74a6,6,0,0,0,2.51,3.74,8.39,8.39,0,0,0,4.54,1.16A10.75,10.75,0,0,0,228,68a13.38,13.38,0,0,0,2.78-1.34,3.27,3.27,0,0,1,1.11,1.11,2.82,2.82,0,0,1,.44,1.51,2.68,2.68,0,0,1-.66,1.79,5.21,5.21,0,0,1-1.78,1.34,10.82,10.82,0,0,1-2.68.86,17.47,17.47,0,0,1-3.33.3,15.85,15.85,0,0,1-5.2-.81,10.4,10.4,0,0,1-4-2.44,11.5,11.5,0,0,1-2.61-4.07,15.49,15.49,0,0,1-.94-5.65,14.82,14.82,0,0,1,.91-5.45,11.36,11.36,0,0,1,2.49-3.89A10,10,0,0,1,218.18,49a12.82,12.82,0,0,1,4.39-.76,11.77,11.77,0,0,1,4.35.79,9.63,9.63,0,0,1,5.57,5.5,10.81,10.81,0,0,1,.8,4.21,2.87,2.87,0,0,1-.7,2.12,3.43,3.43,0,0,1-2,.91ZM222.57,53a5.3,5.3,0,0,0-4,1.64,7.07,7.07,0,0,0-1.78,4.67l10.72-1.67a5.71,5.71,0,0,0-1.41-3.25A4.45,4.45,0,0,0,222.57,53Z" style="fill:#f4f4f4"/><path d="M247.68,68.23a6.16,6.16,0,0,0,4.1-1.13,3.63,3.63,0,0,0,1.31-2.85,3.21,3.21,0,0,0-1-2.5A7.92,7.92,0,0,0,249,60.16l-3.09-1a24.53,24.53,0,0,1-3.33-1.37A10.16,10.16,0,0,1,240,56a7.2,7.2,0,0,1-1.64-2.42,8.48,8.48,0,0,1-.58-3.31,7.91,7.91,0,0,1,2.95-6.48q2.94-2.4,8.06-2.4a19.79,19.79,0,0,1,3.74.33,12.55,12.55,0,0,1,3,.91,5.24,5.24,0,0,1,2,1.44,2.93,2.93,0,0,1,.7,1.91,3.19,3.19,0,0,1-.46,1.75,4,4,0,0,1-1.13,1.18,11.12,11.12,0,0,0-3.07-1.49,13.23,13.23,0,0,0-4.18-.63,6.45,6.45,0,0,0-3.81.94,3,3,0,0,0-1.31,2.54,2.41,2.41,0,0,0,.9,2,9.69,9.69,0,0,0,2.82,1.37l2.75.9a15.93,15.93,0,0,1,6.52,3.59,8.21,8.21,0,0,1,2.32,6.16,9.15,9.15,0,0,1-.77,3.78,8.21,8.21,0,0,1-2.25,3A10.23,10.23,0,0,1,252.82,73a16.64,16.64,0,0,1-5,.68,19.07,19.07,0,0,1-4.08-.4,13.34,13.34,0,0,1-3.22-1.09,6.22,6.22,0,0,1-2.1-1.61,3.18,3.18,0,0,1-.75-2,3.12,3.12,0,0,1,.66-2,4.17,4.17,0,0,1,1.52-1.24,12.11,12.11,0,0,0,3.19,2A10.75,10.75,0,0,0,247.68,68.23Z" style="fill:#406ef9"/><path d="M270.13,73a8.11,8.11,0,0,1-1.64.15,4,4,0,0,1-2.51-.66,2.8,2.8,0,0,1-.82-2.32V40a6.72,6.72,0,0,1,1.14-.28,10.36,10.36,0,0,1,1.66-.13,4,4,0,0,1,2.51.66,2.81,2.81,0,0,1,.82,2.32v7a13.49,13.49,0,0,1,2.44-1,10.86,10.86,0,0,1,3.07-.41,10,10,0,0,1,7,2.38q2.61,2.37,2.61,7.16v15c-.26.07-.64.16-1.14.26a8.26,8.26,0,0,1-1.62.15,4.09,4.09,0,0,1-2.56-.66,2.83,2.83,0,0,1-.82-2.32V58a4.19,4.19,0,0,0-4.53-4.8,6.8,6.8,0,0,0-2.42.43,10.47,10.47,0,0,0-2,1V72.77Z" style="fill:#406ef9"/><path d="M315.77,60.86a15.59,15.59,0,0,1-.85,5.28,11.57,11.57,0,0,1-2.39,4,10.3,10.3,0,0,1-3.72,2.55,13.94,13.94,0,0,1-9.75,0,10.48,10.48,0,0,1-3.72-2.52,11.39,11.39,0,0,1-2.39-4,15.77,15.77,0,0,1-.85-5.33,15.53,15.53,0,0,1,.85-5.27,11.19,11.19,0,0,1,2.41-4,10.78,10.78,0,0,1,3.75-2.52,13.52,13.52,0,0,1,9.65,0,10.59,10.59,0,0,1,3.75,2.55,11.37,11.37,0,0,1,2.41,4A15.4,15.4,0,0,1,315.77,60.86Zm-11.84-7.62a4.86,4.86,0,0,0-4.1,2,9.19,9.19,0,0,0-1.5,5.62,9.28,9.28,0,0,0,1.48,5.66,5.3,5.3,0,0,0,8.25,0,9.27,9.27,0,0,0,1.48-5.63,9.19,9.19,0,0,0-1.5-5.62A4.87,4.87,0,0,0,303.93,53.24Z" style="fill:#406ef9"/><path d="M332.28,73.53a10.91,10.91,0,0,1-2.58-.28,12.94,12.94,0,0,1-2.15-.68v9.29l-1.16.25a8.11,8.11,0,0,1-1.64.15,4,4,0,0,1-2.51-.65,2.82,2.82,0,0,1-.83-2.32V53.7a3.8,3.8,0,0,1,.46-2,4.6,4.6,0,0,1,1.48-1.42,15.07,15.07,0,0,1,3.47-1.48,16.17,16.17,0,0,1,4.69-.64,15.68,15.68,0,0,1,4.9.74,10,10,0,0,1,6.44,6.18,15.49,15.49,0,0,1,.92,5.65,16.09,16.09,0,0,1-.87,5.55,11.29,11.29,0,0,1-2.39,4,9.5,9.5,0,0,1-3.62,2.42A12.72,12.72,0,0,1,332.28,73.53Zm-.92-5.1a5.74,5.74,0,0,0,4.54-1.86c1.09-1.25,1.64-3.18,1.64-5.81S337,56.1,335.85,55a5.81,5.81,0,0,0-4.34-1.72,6.73,6.73,0,0,0-2.3.36,10.65,10.65,0,0,0-1.71.75v13a6.9,6.9,0,0,0,1.71.81A7.11,7.11,0,0,0,331.36,68.43Z" style="fill:#406ef9"/><path d="M59.12,26.58l-.83-15.79A11.58,11.58,0,0,0,46.85.08L40.58,0h-.15A11.67,11.67,0,0,0,28.84,10.66L28,26.57a1.72,1.72,0,0,0,1.56,1.86h.15a1.72,1.72,0,0,0,1.71-1.57l.88-15.92a8.21,8.21,0,0,1,8.16-7.51h.12l6.26.08a8.17,8.17,0,0,1,8.07,7.55l.82,15.79a1.72,1.72,0,0,0,1.7,1.58h.15A1.73,1.73,0,0,0,59.12,26.58Z" style="fill:#f4f4f4"/><path d="M17.54,22.34,9.44,77.83a10.07,10.07,0,0,0,10,11.5h46c6.24,0,12.51-3.32,11.49-9.45L66.24,22.27a3.61,3.61,0,0,0-3.57-3H21.11A3.6,3.6,0,0,0,17.54,22.34Z" style="fill:#205aed"/><path d="M8.21,22.23.11,78a10.11,10.11,0,0,0,10,11.57l56.31-.28s-3.49-.92-4.93-8.16c-2.47-12.35-4.59-59-4.59-59a3.62,3.62,0,0,0-3.57-3H11.78A3.61,3.61,0,0,0,8.21,22.23Z" style="fill:#406ef9"/><path d="M49.79,26.85,49,11.06A11.58,11.58,0,0,0,37.52.35L31.25.27H31.1A11.68,11.68,0,0,0,19.51,10.93l-.88,15.92a1.71,1.71,0,0,0,1.56,1.85h.15a1.73,1.73,0,0,0,1.71-1.58l.88-15.91a8.2,8.2,0,0,1,8.16-7.51h.12l6.26.08a8.16,8.16,0,0,1,8.07,7.54l.82,15.8a1.72,1.72,0,0,0,1.7,1.58h.15A1.72,1.72,0,0,0,49.79,26.85Z" style="fill:#f4f4f4"/><path d="M46.78,58.28,25.33,59.37c1,3.8,4.39,6,9.2,5.74A11.62,11.62,0,0,0,40,63.59a4,4,0,0,1,4.79.49h0a3.44,3.44,0,0,1-.61,5.39,19.36,19.36,0,0,1-9.7,2.82c-10.92.55-18.2-5.8-18.44-15s6.81-16.26,16.44-16.75c9.28-.47,16.6,5.25,16.86,15.18v0A2.6,2.6,0,0,1,46.78,58.28ZM25.07,54.15l15.57-.79a7.24,7.24,0,0,0-7.92-6A7.67,7.67,0,0,0,25.07,54.15Z" style="fill:#f4f4f4"/><path d="M61.62,24.21s5.1,46.39,4.91,51.19-.72,12.21-.72,12.21,2.62-9,3.89-8.77,6.64,2.08,6.64,2.08-6.71-4.94-7.86-9C67.94,69.92,61.62,24.21,61.62,24.21Z" style="fill:#c4952c;opacity:0.2;mix-blend-mode:multiply"/></g></g></svg>